<?xml version="1.0" standalone="no"?>
<!DOCTYPE svg PUBLIC "-//W3C//DTD SVG 20010904//EN"
 "http://www.w3.org/TR/2001/REC-SVG-20010904/DTD/svg10.dtd">
<svg version="1.0" xmlns="http://www.w3.org/2000/svg"
 width="2048.000000pt" height="2048.000000pt" viewBox="0 0 2048.000000 2048.000000"
 preserveAspectRatio="xMidYMid meet">

<g transform="translate(0.000000,2048.000000) scale(0.100000,-0.100000)"
fill="#000000" stroke="none">
<path d="M9745 19405 c-126 -8 -270 -19 -320 -24 -49 -6 -161 -15 -248 -21
-87 -6 -177 -17 -200 -24 -23 -8 -85 -17 -137 -21 -52 -3 -124 -12 -160 -20
-91 -19 -276 -55 -335 -65 -27 -4 -62 -13 -77 -19 -15 -6 -72 -20 -125 -31
-144 -30 -304 -71 -388 -101 -16 -6 -48 -15 -70 -19 -22 -4 -53 -13 -70 -19
-68 -25 -248 -81 -260 -81 -8 0 -20 -6 -27 -13 -7 -7 -38 -20 -68 -29 -78 -24
-143 -48 -156 -59 -6 -5 -35 -16 -63 -25 -28 -8 -84 -30 -124 -48 -40 -18 -83
-37 -97 -41 -14 -4 -39 -16 -56 -26 -17 -11 -43 -19 -56 -19 -14 0 -33 -9 -43
-20 -10 -11 -28 -20 -40 -20 -12 0 -34 -9 -48 -20 -14 -11 -33 -20 -42 -20 -9
0 -38 -11 -64 -24 -88 -46 -216 -106 -224 -106 -5 0 -41 -19 -80 -42 -40 -23
-95 -54 -122 -68 -28 -14 -64 -35 -82 -47 -17 -13 -38 -23 -45 -23 -8 0 -23
-9 -33 -20 -10 -11 -26 -20 -35 -20 -10 0 -28 -8 -41 -18 -13 -10 -43 -26 -66
-36 -24 -11 -43 -22 -43 -26 0 -4 -8 -10 -17 -13 -37 -12 -315 -186 -326 -204
-4 -7 -14 -13 -21 -13 -7 0 -21 -9 -31 -20 -10 -11 -22 -20 -27 -20 -8 0 -148
-88 -158 -100 -3 -3 -41 -30 -85 -60 -138 -93 -178 -121 -245 -174 -61 -48
-86 -67 -146 -107 -13 -9 -46 -37 -74 -63 -27 -26 -61 -53 -75 -60 -13 -7 -62
-47 -107 -88 -46 -42 -101 -91 -123 -109 -22 -19 -42 -36 -45 -39 -3 -3 -37
-34 -75 -69 -181 -167 -504 -483 -557 -546 -33 -38 -67 -79 -77 -90 -74 -84
-211 -248 -211 -253 0 -4 -21 -29 -46 -56 -64 -68 -305 -377 -339 -434 -5 -9
-29 -42 -52 -72 -23 -30 -51 -67 -63 -81 -35 -47 -232 -343 -238 -359 -3 -8
-22 -40 -43 -71 -21 -31 -50 -78 -65 -105 -15 -27 -43 -74 -63 -104 -20 -30
-43 -68 -52 -85 -8 -16 -21 -40 -27 -52 -7 -13 -17 -33 -24 -45 -6 -13 -27
-49 -45 -81 -18 -33 -33 -66 -33 -76 0 -9 -9 -24 -20 -34 -11 -9 -20 -23 -20
-30 0 -20 -58 -133 -75 -147 -8 -7 -15 -22 -15 -33 0 -11 -6 -28 -14 -36 -8
-9 -22 -36 -31 -61 -34 -92 -41 -108 -51 -121 -6 -8 -19 -34 -28 -59 -10 -25
-23 -58 -30 -75 -7 -16 -22 -52 -34 -80 -11 -27 -32 -76 -46 -109 -14 -32 -26
-65 -26 -73 0 -7 -8 -25 -17 -40 -17 -25 -45 -97 -64 -163 -5 -19 -14 -45 -19
-57 -25 -58 -30 -71 -43 -118 -18 -62 -37 -114 -48 -137 -5 -10 -9 -27 -9 -38
0 -11 -4 -28 -9 -38 -30 -58 -47 -111 -86 -272 -9 -36 -25 -95 -35 -131 -11
-36 -20 -78 -20 -92 0 -15 -4 -35 -9 -45 -6 -9 -26 -87 -46 -172 -54 -232 -55
-238 -55 -265 0 -13 -4 -27 -10 -30 -5 -3 -9 -16 -9 -28 1 -24 -11 -111 -35
-247 -24 -133 -35 -207 -47 -315 -6 -55 -15 -118 -19 -140 -17 -75 -29 -180
-35 -295 -7 -158 -15 -240 -23 -240 -20 0 -21 -1095 -1 -1125 6 -9 14 -101 25
-275 5 -96 55 -455 74 -545 5 -22 12 -69 15 -105 10 -108 61 -365 82 -417 7
-18 11 -38 8 -45 -3 -7 2 -38 10 -68 9 -30 22 -90 31 -133 8 -43 20 -91 28
-105 7 -15 17 -49 21 -77 4 -27 13 -61 20 -75 7 -14 16 -47 20 -75 4 -27 12
-59 18 -70 6 -11 16 -42 23 -70 34 -132 70 -249 100 -320 7 -16 18 -50 24 -75
7 -25 15 -49 19 -55 4 -5 18 -43 30 -83 13 -40 29 -85 37 -100 8 -15 14 -33
14 -39 0 -12 24 -69 61 -146 11 -22 19 -46 19 -54 0 -8 6 -27 14 -41 13 -25
44 -92 98 -212 55 -122 77 -171 95 -205 6 -11 16 -31 22 -45 21 -47 101 -194
111 -204 5 -5 10 -19 10 -30 0 -11 6 -27 14 -35 7 -9 31 -50 53 -91 43 -82 79
-142 124 -207 16 -23 29 -45 29 -51 0 -10 76 -131 109 -174 12 -14 21 -31 21
-36 0 -9 29 -55 100 -162 6 -8 18 -27 28 -42 16 -24 108 -159 149 -218 9 -14
30 -40 45 -58 15 -18 28 -37 28 -42 0 -17 66 -112 135 -195 36 -44 111 -136
166 -205 55 -69 125 -152 155 -185 29 -33 83 -96 120 -140 37 -44 75 -86 84
-92 10 -7 47 -43 82 -80 99 -106 446 -452 519 -518 93 -84 198 -176 228 -200
28 -22 82 -68 116 -100 46 -43 114 -95 124 -95 6 0 11 -4 11 -9 0 -6 30 -31
66 -58 36 -26 85 -63 108 -80 22 -18 50 -39 61 -47 11 -9 34 -27 51 -41 18
-14 37 -25 42 -25 6 0 17 -8 24 -18 14 -19 111 -92 122 -92 6 0 243 -156 272
-179 6 -5 20 -12 32 -15 12 -4 22 -11 22 -16 0 -9 42 -36 130 -83 30 -16 62
-35 70 -42 8 -7 44 -28 80 -47 36 -19 81 -44 100 -56 19 -13 63 -36 97 -53 34
-16 65 -34 68 -39 3 -6 17 -10 31 -10 13 0 24 -4 24 -8 0 -13 407 -213 574
-282 55 -22 104 -44 110 -49 6 -5 28 -11 48 -15 20 -4 38 -10 40 -14 4 -9 169
-72 189 -72 8 0 25 -9 39 -20 14 -11 35 -20 47 -20 12 0 42 -9 65 -19 97 -43
541 -191 604 -201 28 -4 64 -15 80 -23 16 -8 54 -18 84 -22 29 -4 74 -16 98
-26 24 -11 54 -19 66 -19 13 0 36 -7 52 -15 16 -8 67 -21 114 -29 47 -9 139
-27 205 -42 287 -61 709 -135 759 -132 12 0 34 -4 49 -11 16 -6 39 -8 52 -5
13 3 37 0 52 -8 20 -10 77 -15 203 -16 150 -2 238 -8 504 -36 22 -3 48 0 58 5
12 6 18 6 18 0 0 -6 20 -8 48 -6 26 3 121 7 212 10 91 3 215 9 275 15 61 5
152 9 204 9 146 1 520 44 751 87 47 8 110 19 140 24 114 18 243 43 305 59 144
36 217 51 243 51 17 0 33 4 36 9 3 5 18 11 33 14 118 24 173 37 208 51 22 8
53 15 68 16 15 0 47 9 69 20 23 11 53 20 67 20 26 0 97 22 286 87 55 19 116
38 135 42 19 4 77 26 128 49 50 23 96 42 102 42 5 0 29 9 52 19 24 11 72 31
108 46 36 14 85 36 110 47 57 26 71 32 145 58 54 19 353 160 415 196 14 8 54
28 90 46 36 17 76 39 89 50 13 10 31 18 39 18 9 0 23 7 31 15 9 7 50 32 91 54
41 23 93 50 114 62 21 11 44 25 50 31 13 11 89 58 195 120 40 24 88 52 106 63
61 37 209 139 255 175 25 20 56 41 70 48 14 7 52 33 85 57 33 24 85 61 115 82
86 59 383 293 410 323 3 4 23 19 44 36 22 16 50 38 61 49 12 11 42 38 66 59
269 237 469 430 633 607 32 35 106 114 165 175 58 61 133 144 166 184 33 40
98 118 145 174 111 132 129 155 250 326 36 50 76 106 90 124 14 18 34 45 45
61 11 15 34 46 52 69 18 22 40 55 49 71 9 17 34 53 55 81 22 28 39 55 39 61 0
5 9 18 20 28 11 10 20 23 20 29 0 10 15 32 98 149 17 25 32 49 32 53 0 4 11
22 25 40 14 18 30 43 35 56 14 31 33 63 47 80 7 8 37 63 67 124 31 60 60 114
65 121 11 12 193 374 221 438 9 22 28 65 42 95 47 104 67 155 73 188 4 17 11
32 16 32 5 0 9 6 9 13 0 8 11 36 25 63 14 27 25 55 25 62 0 7 10 32 22 55 11
23 25 56 29 72 7 26 43 128 62 175 3 8 16 47 28 85 12 39 25 74 30 80 5 5 9
19 9 32 0 20 17 67 41 115 5 10 9 29 9 42 0 13 9 43 20 67 11 24 20 57 20 72
0 15 8 42 17 60 9 18 20 50 24 72 4 22 16 78 28 125 11 47 25 108 31 135 6 28
15 66 19 85 43 179 62 265 70 325 6 39 15 86 21 105 5 19 10 48 10 65 0 16 9
73 19 125 20 96 39 221 46 295 2 22 9 67 14 100 6 33 15 101 21 150 6 50 12
104 15 120 2 17 9 116 14 220 6 105 14 224 20 265 8 68 13 220 15 460 0 79
-10 299 -19 380 -2 19 -8 116 -14 215 -6 99 -15 216 -21 260 -6 44 -15 126
-20 183 -5 56 -11 106 -14 110 -2 4 -11 72 -21 152 -9 80 -22 170 -30 200 -8
30 -21 100 -30 155 -9 55 -20 114 -25 130 -5 17 -14 68 -21 115 -6 47 -16 96
-21 110 -5 14 -14 45 -19 70 -14 64 -24 102 -53 210 -14 52 -30 115 -36 140
-6 25 -16 54 -23 65 -6 11 -14 40 -18 65 -4 25 -28 106 -54 179 -26 74 -65
194 -87 265 -22 72 -43 136 -48 141 -8 10 -58 145 -67 180 -5 20 -38 93 -75
166 -10 20 -18 42 -18 49 0 7 -11 36 -24 64 -34 72 -90 194 -111 241 -44 100
-188 385 -195 385 -5 0 -14 17 -20 38 -7 20 -18 44 -25 52 -13 15 -72 119 -97
170 -7 14 -32 57 -57 95 -24 39 -57 90 -72 115 -16 25 -32 50 -36 55 -5 6 -14
21 -21 35 -46 87 -133 220 -158 241 -8 6 -14 17 -14 24 0 7 -19 37 -43 67 -47
58 -92 120 -149 207 -21 31 -42 62 -48 69 -56 65 -110 132 -110 138 0 4 -15
23 -32 43 -18 20 -55 63 -83 96 -27 32 -59 68 -71 79 -11 12 -33 39 -49 61
-16 22 -54 69 -85 105 -30 36 -66 78 -80 94 -14 16 -55 61 -92 100 -38 39 -68
75 -68 80 0 12 -434 443 -525 521 -38 33 -87 77 -108 98 -21 20 -41 37 -44 37
-2 0 -26 21 -51 46 -67 65 -85 81 -99 85 -6 2 -31 21 -55 42 -85 74 -216 177
-227 177 -5 0 -16 8 -23 18 -16 21 -135 112 -146 112 -5 0 -17 9 -27 20 -10
11 -22 20 -27 20 -5 0 -28 15 -51 34 -23 18 -73 54 -112 80 -38 25 -79 52 -90
60 -11 7 -49 32 -85 55 -36 22 -72 46 -80 51 -97 66 -357 222 -400 239 -19 8
-47 23 -62 33 -15 11 -87 50 -160 87 -73 37 -204 104 -290 149 -86 44 -173 84
-192 88 -20 3 -36 9 -36 13 0 3 -15 12 -32 20 -31 12 -50 21 -173 76 -112 51
-237 98 -550 209 -27 10 -75 24 -105 31 -31 7 -70 20 -87 29 -18 9 -41 16 -52
16 -18 0 -31 4 -96 31 -11 4 -36 11 -55 14 -19 4 -62 15 -95 25 -33 10 -90 28
-126 39 -37 12 -80 21 -97 21 -16 0 -45 6 -63 14 -19 8 -63 19 -99 26 -36 6
-101 20 -145 30 -44 10 -114 23 -155 30 -41 7 -84 15 -95 20 -28 10 -285 52
-370 60 -38 4 -77 10 -86 14 -9 4 -81 14 -160 22 -79 8 -180 19 -224 24 -219
26 -313 30 -725 34 -311 3 -514 0 -675 -9z m885 -1129 c30 -3 78 -7 105 -11
28 -4 131 -11 230 -16 99 -4 205 -13 235 -19 30 -6 97 -15 148 -20 51 -5 100
-14 110 -19 9 -4 55 -14 102 -21 47 -7 117 -19 155 -27 39 -8 93 -18 120 -23
28 -4 79 -15 115 -23 36 -9 83 -18 105 -22 22 -3 69 -14 105 -24 36 -10 101
-29 145 -40 44 -12 100 -29 125 -38 25 -8 68 -20 95 -25 28 -6 69 -19 92 -29
24 -11 55 -19 71 -19 16 0 47 -9 70 -20 22 -11 46 -20 53 -20 6 0 25 -7 42
-15 56 -25 171 -67 202 -72 17 -3 35 -9 40 -13 6 -4 35 -15 65 -25 30 -9 74
-25 97 -36 24 -10 48 -19 54 -19 6 0 55 -20 108 -45 53 -25 116 -55 141 -66
25 -12 52 -25 60 -30 8 -5 26 -14 40 -20 14 -5 45 -21 70 -33 71 -38 124 -64
140 -70 8 -4 35 -20 60 -36 25 -16 54 -34 65 -39 11 -5 45 -23 75 -41 30 -18
84 -48 120 -68 36 -19 77 -43 92 -53 14 -11 31 -19 38 -19 7 0 25 -11 42 -25
16 -14 35 -25 41 -26 7 0 32 -16 57 -35 25 -19 63 -43 85 -54 44 -22 48 -25
195 -125 56 -38 110 -74 119 -80 16 -11 137 -97 208 -149 23 -17 54 -40 69
-51 15 -11 32 -25 38 -30 6 -6 27 -22 46 -35 47 -33 50 -35 90 -69 20 -16 58
-46 86 -68 141 -107 567 -515 760 -728 131 -145 195 -218 223 -255 14 -19 42
-52 61 -73 19 -21 40 -47 45 -56 6 -10 15 -24 22 -32 36 -42 72 -88 93 -119
13 -19 30 -42 37 -50 18 -21 55 -70 76 -100 9 -14 35 -50 57 -80 44 -60 85
-121 165 -245 123 -190 163 -252 185 -290 13 -22 34 -53 47 -68 13 -16 23 -37
23 -47 0 -11 6 -23 13 -27 7 -4 22 -26 34 -48 11 -22 39 -76 63 -120 24 -44
61 -112 81 -151 20 -38 41 -79 47 -90 6 -10 17 -32 25 -49 7 -16 18 -39 24
-50 37 -70 103 -214 103 -224 0 -6 8 -30 19 -54 10 -23 31 -73 46 -112 56
-143 87 -220 96 -237 5 -10 9 -30 9 -46 0 -15 5 -33 10 -38 14 -14 80 -202 80
-228 0 -12 9 -36 20 -54 11 -18 20 -45 20 -60 0 -15 9 -42 20 -60 11 -18 20
-43 20 -55 0 -12 7 -47 15 -77 15 -52 36 -132 55 -210 4 -19 18 -71 30 -115
12 -44 27 -102 32 -130 5 -27 14 -63 20 -80 6 -16 16 -66 22 -110 6 -44 14
-85 18 -90 8 -13 24 -105 39 -220 6 -49 15 -112 21 -140 5 -27 14 -90 19 -140
5 -49 14 -117 19 -150 30 -178 44 -1060 22 -1375 -17 -256 -66 -628 -113 -865
-5 -27 -14 -75 -18 -105 -15 -95 -30 -170 -36 -181 -4 -5 -13 -47 -20 -92 -14
-83 -36 -183 -54 -247 -5 -19 -19 -69 -31 -110 -11 -41 -26 -97 -31 -125 -6
-27 -14 -52 -18 -55 -3 -3 -11 -23 -18 -45 -6 -22 -21 -69 -33 -105 -12 -36
-31 -94 -42 -130 -12 -36 -31 -88 -44 -117 -13 -28 -33 -82 -45 -120 -12 -37
-26 -75 -31 -83 -14 -25 -24 -51 -53 -130 -14 -41 -30 -83 -36 -92 -5 -10 -13
-26 -19 -35 -5 -10 -21 -45 -36 -78 -76 -172 -158 -340 -193 -400 -17 -27 -41
-72 -55 -100 -65 -130 -201 -355 -335 -553 -42 -63 -81 -123 -88 -135 -7 -12
-20 -32 -30 -44 -37 -47 -49 -63 -88 -118 -22 -31 -64 -85 -92 -120 -29 -34
-53 -67 -53 -72 0 -6 -7 -17 -16 -24 -9 -7 -31 -35 -48 -60 -32 -48 -71 -96
-161 -200 -27 -32 -77 -90 -110 -130 -234 -278 -381 -425 -834 -835 -30 -27
-63 -55 -75 -63 -12 -8 -23 -18 -26 -21 -3 -4 -48 -40 -100 -80 -52 -41 -106
-84 -120 -97 -32 -28 -85 -68 -232 -172 -65 -45 -118 -87 -118 -92 0 -5 -5 -9
-11 -9 -10 0 -50 -28 -92 -65 -10 -9 -28 -20 -40 -26 -60 -28 -268 -153 -303
-182 -16 -14 -45 -32 -64 -41 -19 -9 -53 -27 -75 -41 -22 -14 -57 -34 -77 -45
-21 -11 -38 -25 -38 -30 0 -6 -13 -10 -29 -10 -16 0 -34 -7 -41 -15 -14 -17
-98 -65 -113 -65 -6 0 -18 -6 -26 -14 -9 -8 -41 -24 -71 -37 -30 -13 -57 -26
-60 -30 -3 -3 -50 -28 -105 -54 -55 -26 -121 -58 -147 -71 -27 -13 -54 -24
-62 -24 -8 0 -21 -6 -28 -13 -7 -8 -27 -17 -43 -21 -17 -4 -48 -15 -70 -26
-22 -10 -60 -27 -85 -38 -25 -10 -63 -27 -85 -37 -59 -26 -312 -114 -370 -129
-27 -7 -59 -17 -70 -23 -11 -6 -38 -14 -60 -17 -22 -4 -49 -14 -61 -21 -12 -7
-39 -17 -60 -21 -21 -3 -50 -12 -64 -19 -14 -7 -45 -16 -70 -20 -25 -3 -60
-11 -79 -17 -18 -6 -59 -16 -90 -23 -31 -7 -82 -20 -114 -29 -32 -9 -68 -16
-81 -16 -13 0 -47 -8 -77 -19 -31 -10 -80 -22 -110 -26 -30 -3 -67 -10 -84
-15 -16 -5 -61 -14 -100 -20 -38 -6 -77 -14 -85 -17 -8 -3 -42 -7 -75 -9 -33
-2 -71 -8 -85 -13 -14 -5 -61 -12 -105 -16 -44 -3 -93 -10 -110 -14 -133 -39
-963 -60 -1310 -35 -99 8 -214 18 -255 24 -41 6 -97 14 -125 16 -194 19 -248
25 -305 34 -36 6 -94 15 -130 20 -142 19 -165 23 -175 30 -5 4 -32 11 -60 15
-27 3 -88 15 -135 26 -47 10 -110 24 -140 30 -30 6 -98 24 -150 39 -52 16
-114 31 -138 35 -24 4 -56 13 -70 21 -15 8 -32 14 -39 14 -7 0 -56 14 -110 31
-54 16 -127 39 -163 51 -36 11 -74 23 -85 28 -31 12 -146 50 -190 62 -59 16
-164 55 -210 78 -22 11 -46 20 -53 20 -7 0 -32 9 -54 20 -23 11 -48 20 -55 20
-8 0 -31 9 -51 20 -20 11 -68 34 -107 51 -112 50 -455 220 -508 251 -26 15
-53 28 -60 28 -7 0 -38 18 -69 40 -32 22 -72 47 -90 55 -63 31 -170 98 -342
214 -43 29 -83 54 -147 91 -33 19 -344 246 -394 288 -5 4 -59 48 -120 97 -60
49 -128 105 -150 124 -23 20 -63 54 -90 76 -27 22 -92 81 -145 131 -52 49
-131 124 -175 165 -133 124 -454 452 -508 519 -27 34 -129 148 -175 197 -12
13 -22 26 -22 29 0 3 -19 29 -43 58 -23 30 -51 66 -62 82 -11 15 -35 44 -53
64 -19 19 -54 67 -79 105 -25 39 -60 88 -77 110 -17 21 -35 46 -41 55 -5 9
-45 69 -88 134 -42 64 -77 120 -77 123 0 4 -7 14 -15 23 -8 8 -28 43 -46 75
-17 33 -39 69 -49 80 -10 11 -32 47 -49 80 -18 32 -38 67 -46 75 -8 9 -15 22
-15 28 0 7 -9 17 -20 24 -11 7 -20 20 -20 28 0 8 -11 32 -25 52 -14 20 -25 44
-25 52 0 8 -4 17 -9 21 -5 3 -30 47 -55 98 -25 50 -50 99 -55 107 -4 8 -28 58
-54 110 -98 204 -111 232 -119 236 -4 3 -8 16 -8 29 0 13 -11 45 -25 71 -14
26 -25 52 -25 57 0 14 -61 170 -72 182 -4 5 -8 19 -8 32 0 13 -4 31 -10 41 -5
9 -30 69 -55 132 -26 63 -53 128 -61 143 -8 16 -14 42 -14 58 0 15 -9 43 -20
61 -11 18 -20 43 -20 56 0 12 -7 39 -17 60 -9 20 -20 62 -24 92 -8 54 -36 168
-64 264 -9 27 -18 68 -21 90 -3 23 -9 50 -14 61 -4 11 -13 47 -19 80 -7 33
-19 89 -28 125 -9 36 -20 102 -24 148 -5 45 -11 87 -15 94 -7 11 -13 48 -38
263 -8 72 -20 146 -25 165 -6 19 -13 85 -15 145 -3 61 -11 162 -17 225 -13
129 -17 691 -7 875 13 230 28 410 37 450 6 22 13 67 16 100 12 119 24 201 40
285 9 47 20 114 25 150 4 36 15 94 23 130 14 60 24 106 62 275 7 33 22 96 34
140 11 44 21 89 21 100 0 11 7 33 15 49 8 15 15 44 15 62 0 19 5 43 10 54 6
11 15 29 20 40 6 11 10 33 10 50 0 16 9 49 19 72 25 55 60 162 70 210 5 20 16
48 25 62 9 14 16 34 16 45 0 11 9 40 20 66 11 26 20 54 20 63 0 9 10 37 23 63
13 25 29 66 37 92 7 26 17 50 21 53 5 3 9 14 9 25 0 11 11 42 25 69 14 27 25
54 25 61 0 10 44 102 76 159 7 14 14 35 14 47 0 12 4 25 10 28 5 3 24 36 42
73 91 190 131 268 144 283 8 8 14 21 14 27 0 7 11 30 25 52 14 22 25 46 25 53
0 7 6 19 13 25 6 7 32 48 57 92 114 201 161 278 175 290 8 7 15 17 15 22 0 5
19 37 42 71 24 34 49 73 55 87 20 39 37 64 51 73 6 4 19 22 28 40 9 18 33 53
53 79 20 26 56 75 81 110 52 74 295 376 319 398 10 8 29 31 43 50 14 19 44 53
66 76 22 22 43 50 46 62 4 12 10 22 14 22 4 0 19 12 34 28 45 45 147 146 160
158 7 7 85 84 172 173 87 89 162 161 167 161 9 0 139 111 213 183 28 27 78 71
113 99 35 28 63 55 63 60 0 4 6 8 13 8 8 0 24 11 37 25 13 14 29 25 36 25 7 0
17 6 21 14 4 8 39 38 77 68 38 29 87 67 110 85 23 18 68 51 101 74 33 24 66
49 73 56 7 7 20 13 28 13 8 0 14 4 14 9 0 5 17 19 37 31 21 12 51 33 68 47 37
30 157 108 199 130 17 9 33 19 36 23 3 4 31 22 62 39 31 18 62 39 68 46 7 8
20 15 29 15 9 0 41 15 71 33 30 18 73 41 95 51 22 11 58 31 80 46 22 15 74 44
115 64 41 21 82 44 91 52 8 8 19 14 24 14 12 0 116 51 147 72 14 10 32 18 38
18 13 0 29 7 190 83 130 62 216 97 237 97 10 0 36 9 58 19 22 11 67 29 100 41
33 12 83 30 110 42 28 11 67 24 88 28 21 4 46 15 56 24 9 9 24 16 33 16 13 0
68 16 278 81 36 12 99 29 140 39 41 10 93 24 115 30 22 6 67 18 100 25 33 7
83 18 110 24 28 6 64 14 80 17 17 3 48 9 70 14 22 5 92 19 155 30 63 12 122
24 130 27 17 6 14 6 225 27 83 8 163 20 179 25 15 6 74 11 130 11 56 0 105 3
109 6 3 3 54 8 112 11 59 3 137 8 174 12 64 8 610 5 721 -3z m-3875 -665 c3
-5 1 -12 -5 -16 -5 -3 -10 1 -10 9 0 18 6 21 15 7z"/>
<path d="M10194 16826 c-51 -57 -74 -86 -142 -176 -31 -41 -72 -92 -91 -113
-19 -21 -42 -47 -50 -59 -15 -20 -254 -259 -336 -336 -19 -19 -35 -38 -35 -43
0 -5 -5 -9 -11 -9 -24 0 -449 -426 -534 -535 -22 -27 -55 -68 -75 -90 -19 -22
-44 -53 -55 -69 -11 -15 -33 -44 -49 -64 -50 -65 -200 -291 -243 -369 -24 -42
-49 -83 -57 -92 -8 -9 -17 -28 -21 -43 -4 -14 -15 -34 -26 -44 -10 -9 -19 -22
-19 -28 0 -11 -82 -189 -100 -216 -15 -22 -25 -46 -55 -125 -15 -38 -33 -81
-40 -95 -20 -40 -56 -133 -65 -165 -4 -16 -15 -47 -24 -69 -9 -21 -16 -52 -16
-68 0 -17 -6 -42 -14 -56 -8 -15 -24 -61 -36 -102 -12 -41 -26 -84 -30 -95 -5
-11 -12 -42 -15 -68 -4 -27 -13 -67 -21 -89 -8 -22 -14 -54 -14 -70 0 -17 -7
-53 -15 -81 -13 -47 -40 -219 -52 -337 -2 -25 -7 -52 -10 -60 -16 -43 -26
-775 -14 -1088 5 -134 83 -744 100 -787 5 -11 13 -42 19 -70 30 -138 65 -272
77 -291 8 -12 17 -49 21 -83 3 -34 11 -64 15 -67 5 -3 9 -14 9 -25 0 -10 5
-19 10 -19 6 0 10 -13 10 -28 0 -15 4 -32 8 -37 5 -6 15 -26 22 -45 21 -56 50
-121 76 -172 13 -26 24 -54 24 -61 0 -8 11 -31 25 -51 14 -20 25 -43 25 -51 0
-10 11 -15 31 -15 l31 0 -7 46 c-3 25 -12 69 -20 97 -13 51 -20 105 -50 381
-17 156 -21 693 -6 773 5 26 17 107 25 178 17 134 34 225 68 355 11 41 22 86
25 100 9 51 26 115 34 125 4 6 10 33 14 60 5 28 16 61 26 74 11 13 19 37 19
54 0 17 6 38 14 46 7 9 21 41 30 71 10 30 47 116 83 190 36 74 81 169 101 209
20 41 44 83 54 93 10 10 18 24 18 31 0 8 8 23 18 35 9 11 26 35 37 53 11 18
27 43 35 54 8 12 33 50 55 85 22 34 47 70 56 79 8 9 23 30 33 46 16 25 44 65
111 153 6 7 17 22 26 32 9 9 35 42 57 71 47 63 64 82 180 208 48 51 91 101 96
110 5 9 18 22 28 29 10 7 18 17 18 22 0 6 220 228 343 346 7 6 30 37 52 69 22
31 58 79 81 106 22 26 64 92 94 146 29 54 60 109 69 122 l15 23 23 -43 c12
-24 29 -57 37 -74 9 -16 29 -48 46 -70 16 -22 37 -56 46 -75 9 -19 42 -64 73
-100 32 -36 66 -76 77 -89 10 -13 30 -33 43 -45 86 -77 276 -272 375 -386 21
-25 59 -67 85 -95 25 -27 57 -65 71 -84 14 -19 35 -44 47 -57 29 -32 100 -122
148 -188 22 -31 55 -75 72 -99 18 -23 33 -46 33 -50 0 -5 19 -34 43 -65 51
-68 130 -190 173 -270 17 -31 49 -90 72 -131 23 -41 42 -79 42 -86 0 -6 8 -20
19 -29 10 -9 21 -30 24 -45 3 -16 24 -67 47 -114 22 -47 40 -93 40 -102 0 -9
11 -39 25 -67 14 -27 25 -55 25 -61 0 -7 9 -23 20 -37 11 -14 20 -39 20 -55 0
-17 8 -53 18 -80 10 -28 28 -90 41 -140 12 -49 31 -124 42 -165 46 -176 94
-724 84 -965 -2 -55 -7 -172 -10 -260 -4 -88 -14 -203 -22 -255 -9 -52 -19
-122 -23 -155 -5 -33 -12 -81 -16 -107 -5 -38 -4 -48 8 -48 22 0 57 37 64 68
4 15 11 32 16 39 19 24 78 152 78 170 0 10 8 34 18 53 10 19 31 76 47 125 30
96 42 130 56 157 5 10 9 25 9 34 0 9 9 44 19 78 28 86 62 222 72 281 4 28 13
66 19 85 6 19 15 62 19 95 5 33 16 101 25 150 8 50 21 149 27 220 19 235 21
250 29 260 15 18 10 713 -6 890 -8 88 -19 208 -24 267 -5 58 -15 128 -21 155
-6 26 -17 89 -24 138 -7 50 -27 142 -45 205 -17 63 -37 144 -46 180 -8 35 -21
76 -28 92 -8 15 -17 47 -21 70 -4 24 -13 53 -21 65 -7 12 -16 41 -20 65 -4 24
-13 54 -20 68 -8 14 -20 43 -28 65 -32 92 -41 115 -82 215 -24 58 -48 116 -54
130 -5 14 -31 63 -56 110 -26 47 -53 97 -60 111 -8 15 -21 32 -29 39 -8 7 -15
18 -15 24 0 7 -20 45 -45 85 -25 40 -45 75 -45 77 0 8 -73 109 -82 112 -4 2
-8 8 -8 14 0 12 -60 96 -147 208 -35 43 -63 83 -63 88 0 5 -26 37 -57 72 -32
35 -87 95 -122 134 -144 159 -239 253 -326 322 -107 84 -336 311 -488 484 -51
57 -197 241 -197 247 0 8 -7 17 -96 121 -59 68 -86 70 -140 8z"/>
<path d="M6798 15428 c-3 -124 -7 -170 -19 -193 -9 -16 -19 -55 -23 -85 -7
-54 -19 -105 -36 -145 -20 -50 -100 -304 -100 -319 0 -9 -9 -36 -20 -58 -11
-23 -20 -52 -20 -65 0 -12 -6 -37 -14 -55 -8 -18 -20 -60 -26 -93 -7 -33 -16
-69 -21 -80 -5 -11 -15 -60 -24 -110 -9 -49 -22 -126 -31 -170 -8 -44 -18
-109 -21 -145 -3 -36 -9 -70 -14 -75 -10 -13 -29 -223 -29 -321 0 -69 1 -71
34 -95 18 -13 53 -40 77 -61 24 -20 78 -63 119 -96 59 -47 245 -218 282 -259
4 -5 45 -48 91 -98 105 -111 187 -210 187 -223 0 -6 8 -13 18 -16 9 -3 25 -18
34 -33 33 -52 43 -67 106 -149 34 -46 62 -87 62 -92 0 -5 9 -17 20 -27 11 -10
20 -22 20 -27 0 -5 20 -39 45 -77 25 -38 45 -73 45 -80 0 -6 3 -11 8 -11 4 0
25 -36 47 -80 61 -121 106 -123 86 -3 -14 82 -19 526 -7 713 4 74 14 180 22
235 8 55 23 167 34 248 11 81 23 153 27 160 4 7 13 48 20 92 14 96 42 232 53
260 4 11 13 33 19 48 6 15 11 38 11 51 0 13 7 41 17 62 9 22 20 56 25 77 20
92 27 115 48 167 13 30 26 64 30 75 13 35 52 129 76 181 13 28 24 57 24 63 0
7 9 24 20 38 11 14 20 34 20 44 0 11 -9 27 -20 36 -11 10 -20 22 -20 27 0 31
-342 395 -399 426 -28 14 -34 19 -75 55 -16 14 -35 25 -42 25 -7 0 -14 4 -16
8 -7 20 -221 152 -318 199 -155 73 -226 103 -244 103 -9 0 -16 4 -16 10 0 5
-15 16 -33 24 -19 7 -49 28 -69 45 -63 55 -65 51 -70 -131z"/>
<path d="M13686 15561 c-10 -11 -37 -29 -59 -41 -23 -11 -53 -27 -67 -35 -28
-15 -118 -56 -170 -78 -46 -19 -81 -35 -100 -45 -8 -5 -31 -17 -50 -27 -19 -9
-51 -27 -70 -38 -19 -11 -55 -31 -80 -45 -25 -13 -61 -36 -80 -51 -19 -14 -55
-40 -80 -56 -40 -26 -86 -62 -169 -130 -54 -44 -171 -163 -215 -217 -25 -32
-67 -84 -92 -115 -42 -51 -46 -60 -41 -99 2 -23 16 -66 30 -95 26 -56 55 -128
77 -189 6 -19 27 -78 46 -130 18 -52 34 -103 34 -114 0 -10 9 -35 19 -55 19
-36 41 -113 65 -226 7 -33 15 -67 18 -75 7 -17 22 -80 38 -160 7 -30 16 -71
21 -90 25 -98 66 -383 75 -525 2 -44 10 -95 15 -113 7 -21 12 -180 13 -425 1
-448 2 -452 70 -326 22 40 59 104 83 143 23 38 43 76 43 83 0 7 4 13 9 13 5 0
27 30 50 68 22 37 68 101 101 142 33 41 69 86 80 100 11 14 20 30 20 37 0 6 9
15 20 18 11 3 20 12 20 18 0 26 141 180 284 310 17 16 49 45 71 65 22 21 63
55 90 77 28 22 61 51 75 65 48 49 185 157 208 164 12 4 22 13 22 21 0 7 7 16
16 19 14 5 15 20 9 119 -4 61 -13 137 -21 167 -8 30 -14 94 -14 142 0 52 -4
88 -10 88 -5 0 -10 9 -10 20 0 11 -4 39 -9 62 -5 24 -17 81 -26 128 -43 217
-97 420 -140 525 -7 17 -16 48 -20 70 -4 22 -15 54 -26 71 -10 17 -19 42 -19
56 0 13 -9 44 -21 68 -12 24 -25 66 -29 94 -5 28 -15 71 -24 96 -35 101 -48
270 -34 430 4 41 -19 51 -46 21z"/>
<path d="M10202 14320 c-57 -41 -447 -426 -509 -502 -28 -35 -74 -88 -102
-118 -69 -74 -72 -78 -112 -130 -18 -25 -50 -64 -69 -87 -72 -85 -220 -307
-220 -328 0 -7 -7 -15 -15 -19 -8 -3 -15 -15 -15 -26 0 -11 -9 -28 -21 -38
-11 -9 -27 -30 -35 -47 -8 -16 -28 -52 -44 -80 -30 -51 -144 -280 -162 -325
-5 -14 -18 -42 -29 -62 -10 -20 -19 -47 -19 -60 0 -13 -12 -41 -25 -63 -14
-22 -25 -51 -25 -65 0 -14 -9 -43 -20 -65 -11 -22 -20 -46 -20 -55 0 -9 -8
-34 -19 -56 -10 -21 -21 -57 -24 -80 -4 -22 -13 -54 -22 -70 -8 -17 -20 -77
-26 -135 -6 -57 -16 -113 -22 -124 -6 -11 -14 -60 -18 -110 -4 -49 -14 -130
-23 -180 -34 -185 -32 -837 4 -1000 5 -22 14 -87 20 -143 6 -57 16 -116 22
-130 6 -15 14 -56 18 -92 4 -36 14 -81 23 -100 8 -19 19 -51 22 -70 4 -19 16
-52 26 -72 11 -21 19 -48 19 -60 0 -13 9 -38 20 -56 11 -18 20 -40 20 -50 0
-10 8 -33 18 -53 10 -19 26 -57 36 -84 23 -60 132 -273 152 -296 8 -8 14 -19
14 -23 0 -3 20 -37 45 -75 25 -38 45 -73 45 -80 0 -6 9 -16 20 -23 11 -7 20
-18 20 -25 0 -6 8 -18 19 -25 10 -7 21 -22 25 -34 9 -31 214 -233 282 -279 32
-22 65 -48 72 -57 7 -10 19 -18 27 -18 7 0 27 -11 43 -25 17 -14 35 -25 42
-25 7 0 24 -8 38 -19 39 -27 139 -71 163 -71 11 0 31 -8 46 -17 20 -13 53 -18
147 -20 67 -2 138 -8 159 -15 28 -8 43 -8 62 0 15 7 75 12 139 12 103 0 144 6
201 30 11 5 34 11 50 15 17 3 50 16 75 27 25 11 65 29 90 40 83 37 90 41 90
50 0 4 5 8 10 8 16 0 109 62 159 106 57 49 221 217 221 225 0 4 20 29 45 55
25 27 45 54 45 60 0 6 9 19 20 29 11 10 20 23 20 30 0 6 15 29 33 51 18 21 44
57 57 79 43 75 130 244 130 256 0 6 9 22 20 36 11 14 20 38 20 53 0 15 7 33
15 40 8 7 20 31 25 54 6 22 20 59 30 82 11 23 20 55 20 71 0 16 3 33 7 37 10
10 31 75 38 120 4 23 13 64 21 91 7 28 18 77 23 110 6 33 17 93 25 132 9 40
18 114 21 165 2 51 9 127 14 168 13 105 14 393 1 535 -6 66 -15 170 -20 230
-5 61 -14 135 -20 165 -6 30 -15 80 -20 110 -5 30 -14 75 -20 100 -6 25 -17
74 -25 110 -7 36 -20 85 -28 110 -8 25 -20 70 -27 100 -7 30 -17 62 -21 70 -5
8 -13 35 -18 60 -14 61 -53 174 -67 191 -6 8 -14 31 -18 51 -4 21 -13 44 -21
52 -8 8 -21 34 -29 57 -9 24 -20 45 -26 47 -5 2 -10 10 -10 18 0 24 -147 300
-220 414 -16 25 -36 59 -45 75 -24 47 -65 108 -162 236 -40 53 -80 102 -88
109 -8 7 -15 17 -15 22 0 12 -98 131 -111 136 -5 2 -9 8 -9 13 0 5 -21 31 -47
57 -27 26 -70 74 -98 107 -57 69 -343 355 -432 433 -33 28 -70 52 -80 52 -11
0 -38 -13 -61 -30z"/>
<path d="M15502 13719 c-13 -5 -35 -6 -49 -3 -13 4 -34 2 -46 -4 -12 -6 -62
-15 -112 -20 -49 -6 -108 -15 -130 -22 -22 -6 -58 -15 -80 -19 -22 -4 -56 -15
-75 -23 -19 -9 -53 -19 -75 -23 -21 -4 -56 -15 -77 -26 -20 -10 -43 -19 -49
-19 -18 0 -246 -113 -304 -151 -27 -18 -83 -54 -123 -81 -40 -26 -75 -48 -79
-48 -17 0 -219 -165 -266 -217 -11 -13 -26 -23 -33 -23 -7 0 -17 -6 -21 -14
-4 -8 -28 -30 -53 -51 -92 -75 -227 -214 -369 -380 -80 -93 -151 -176 -158
-183 -7 -8 -18 -23 -25 -35 -14 -28 -71 -101 -80 -105 -5 -2 -8 -8 -8 -13 0
-5 -35 -60 -78 -122 -95 -138 -105 -154 -180 -297 -94 -181 -96 -184 -114
-198 -10 -7 -18 -22 -18 -34 0 -11 -11 -41 -24 -67 -36 -72 -44 -91 -66 -171
-32 -118 -51 -182 -62 -215 -5 -16 -16 -59 -23 -95 -7 -36 -20 -85 -29 -110
-9 -25 -16 -56 -16 -70 0 -14 -7 -38 -16 -55 -9 -16 -22 -55 -29 -85 -7 -30
-29 -101 -49 -157 -20 -56 -36 -107 -36 -113 0 -15 -77 -208 -105 -263 -14
-27 -25 -53 -25 -58 0 -14 -60 -141 -75 -159 -7 -8 -15 -28 -19 -45 -4 -16
-16 -35 -27 -43 -10 -7 -19 -21 -19 -31 0 -22 -44 -104 -65 -121 -8 -7 -15
-18 -15 -24 0 -18 -24 -66 -32 -66 -5 0 -8 -4 -8 -9 0 -8 -60 -100 -144 -221
-17 -25 -35 -52 -41 -61 -15 -25 -120 -154 -190 -234 -34 -38 -71 -83 -84
-100 -58 -76 -127 -151 -263 -286 -130 -128 -148 -149 -148 -178 l0 -33 93 7
c50 3 115 10 142 14 276 50 459 98 571 152 22 10 45 19 51 19 19 0 121 50 133
65 7 8 18 15 25 15 21 0 141 58 154 74 8 9 19 16 25 16 9 0 125 70 162 97 22
17 50 33 73 43 13 6 51 34 85 63 33 29 81 66 106 82 25 16 61 43 80 61 19 18
51 47 70 64 88 79 178 170 183 184 4 9 11 16 17 16 13 0 108 98 168 174 26 33
56 69 67 81 11 12 36 43 55 69 19 26 45 60 58 76 12 15 22 32 22 38 0 5 7 16
16 23 9 7 34 40 55 74 21 33 43 65 49 72 5 7 10 19 10 27 0 8 6 21 13 28 26
26 117 168 117 182 0 8 4 17 9 21 12 7 181 344 181 360 0 7 16 42 35 78 18 37
37 83 41 104 4 21 15 51 26 68 10 16 18 40 18 53 0 12 7 34 16 47 9 14 20 39
24 57 5 18 34 105 65 193 67 192 101 294 110 334 6 30 45 113 45 96 0 -6 -5
-39 -10 -75 -5 -36 -14 -128 -20 -204 -6 -77 -14 -144 -19 -150 -5 -6 -12 -33
-16 -61 -12 -97 -36 -220 -46 -237 -5 -10 -9 -32 -9 -49 0 -16 -8 -51 -19 -77
-10 -26 -26 -74 -36 -107 -10 -33 -22 -64 -27 -69 -4 -6 -8 -18 -8 -28 0 -10
-4 -26 -9 -36 -5 -9 -17 -37 -27 -62 -9 -25 -30 -73 -46 -106 -15 -34 -28 -66
-28 -70 0 -11 -73 -157 -81 -164 -8 -6 -45 -71 -70 -121 -10 -19 -25 -41 -33
-49 -9 -7 -16 -21 -16 -31 0 -10 -4 -20 -9 -24 -6 -3 -33 -45 -62 -93 -29 -48
-72 -110 -96 -139 -23 -28 -43 -56 -43 -62 0 -5 -10 -20 -22 -33 -13 -13 -41
-48 -64 -78 -22 -30 -53 -66 -67 -80 -15 -14 -27 -28 -27 -32 0 -23 -387 -404
-423 -417 -7 -2 -40 -28 -74 -57 -56 -47 -227 -173 -272 -199 -9 -5 -47 -29
-84 -53 -37 -23 -93 -56 -124 -73 -32 -17 -71 -38 -88 -46 -16 -9 -41 -22 -55
-30 -55 -29 -129 -62 -200 -88 -41 -16 -83 -35 -93 -44 -10 -8 -39 -18 -65
-22 -26 -4 -76 -18 -112 -31 -60 -22 -65 -26 -65 -53 0 -28 3 -30 45 -35 71
-8 490 7 545 19 28 6 86 14 130 17 44 3 96 13 115 22 19 9 60 22 90 29 116 25
216 51 245 63 17 7 44 16 60 20 31 9 255 99 290 117 84 44 212 103 222 103 6
0 18 8 25 18 7 9 42 32 78 50 86 43 128 67 149 86 10 9 21 16 24 16 10 0 107
68 340 235 35 25 215 167 254 200 80 68 229 213 315 305 113 123 248 284 248
298 0 5 15 26 33 48 29 34 62 85 104 157 6 11 15 22 20 26 10 8 27 35 56 91
13 25 28 54 34 65 11 18 47 97 73 157 5 13 14 30 19 38 20 35 51 112 51 128 0
9 9 32 20 50 11 18 20 39 20 46 0 7 20 76 45 152 25 75 52 167 61 203 8 36 22
93 31 126 8 33 24 107 34 164 10 57 25 136 33 175 9 39 22 125 30 191 9 66 18
140 21 165 3 25 10 95 15 155 5 61 14 157 20 215 7 58 15 161 19 230 4 69 15
148 24 175 9 28 20 84 25 125 11 88 44 211 65 243 7 12 17 36 21 52 10 39 82
188 120 245 35 52 180 201 214 219 15 8 22 21 22 41 0 27 -2 29 -52 33 -29 3
-64 5 -78 5 -45 -1 -194 13 -204 19 -16 10 -440 12 -464 2z"/>
<path d="M4575 13705 c-49 -7 -129 -14 -177 -14 -78 -1 -88 -3 -88 -19 0 -10
18 -36 41 -57 54 -53 129 -150 129 -168 0 -8 7 -20 15 -27 9 -7 25 -33 35 -56
11 -24 24 -46 30 -49 5 -3 10 -15 10 -27 0 -11 9 -33 21 -49 11 -16 23 -46 26
-66 3 -21 14 -56 24 -79 10 -22 19 -56 19 -75 1 -19 5 -54 11 -79 5 -25 20
-103 33 -175 13 -71 26 -141 29 -155 4 -14 9 -79 12 -145 3 -66 12 -177 20
-247 8 -69 18 -185 21 -258 3 -76 11 -145 19 -164 8 -19 19 -87 24 -152 5 -66
16 -139 24 -164 8 -25 17 -66 21 -91 3 -26 14 -75 25 -110 10 -35 25 -89 31
-119 7 -30 16 -59 20 -65 4 -5 11 -28 15 -50 4 -22 12 -46 18 -54 7 -8 17 -39
24 -70 12 -60 42 -148 75 -221 29 -65 155 -316 188 -375 16 -27 36 -65 45 -82
10 -18 21 -33 26 -33 5 0 9 -11 9 -24 0 -13 7 -29 15 -36 8 -7 25 -30 37 -51
12 -22 25 -39 30 -39 4 0 8 -5 8 -11 0 -31 171 -241 345 -426 44 -46 82 -88
83 -94 2 -5 8 -9 13 -9 5 0 39 -28 75 -62 36 -35 69 -64 73 -66 5 -2 27 -21
50 -42 54 -52 154 -133 248 -203 21 -15 73 -55 115 -87 43 -33 84 -60 91 -60
7 0 24 -11 37 -25 13 -14 28 -25 33 -25 6 0 25 -11 43 -25 18 -14 35 -25 39
-25 3 0 35 -18 71 -40 36 -22 71 -40 78 -40 6 0 22 -9 36 -20 14 -11 30 -20
36 -20 6 0 19 -9 29 -20 10 -11 26 -20 35 -20 10 0 28 -8 41 -19 13 -10 53
-30 89 -45 36 -15 83 -36 105 -46 22 -9 55 -21 74 -25 19 -4 48 -16 65 -26 17
-10 40 -19 51 -19 11 0 34 -9 52 -19 17 -11 49 -23 70 -27 21 -4 43 -9 48 -13
18 -11 100 -30 131 -31 17 0 44 -6 60 -14 16 -8 67 -17 114 -21 46 -4 100 -13
120 -20 47 -17 179 -26 380 -27 262 -1 252 -2 248 25 -2 17 -15 26 -58 40 -30
10 -59 23 -64 28 -6 5 -25 9 -44 9 -19 0 -51 8 -71 19 -56 29 -199 91 -210 91
-6 0 -27 10 -48 22 -21 12 -51 28 -68 35 -16 8 -37 18 -45 23 -20 13 -155 89
-205 117 -22 12 -54 29 -71 37 -17 8 -36 22 -44 30 -7 9 -18 16 -24 16 -7 0
-23 11 -36 25 -13 14 -28 25 -33 25 -5 0 -31 18 -57 40 -26 22 -52 40 -56 40
-5 0 -15 9 -22 20 -7 12 -21 24 -31 28 -35 13 -252 210 -371 337 -41 43 -84
89 -96 101 -11 12 -53 61 -92 110 -40 49 -78 96 -84 104 -7 8 -17 22 -23 31
-21 36 -175 265 -194 291 -12 14 -21 33 -21 41 0 8 -8 25 -18 38 -29 38 -58
93 -71 131 -7 20 -18 39 -26 42 -8 3 -15 10 -15 17 0 6 -18 49 -40 95 -22 46
-43 96 -46 111 -4 15 -16 43 -26 61 -10 18 -18 38 -18 45 0 7 -11 35 -25 62
-13 28 -25 62 -25 76 0 15 -9 46 -20 70 -11 24 -20 58 -20 76 0 17 -4 35 -10
38 -5 3 -10 17 -10 30 0 13 -4 27 -10 30 -5 3 -10 21 -10 39 0 19 -11 71 -24
117 -13 46 -26 121 -29 165 -4 45 -13 99 -21 120 -9 24 -17 88 -20 164 -2 69
-12 188 -21 264 -10 83 -12 143 -7 148 5 5 12 -18 15 -58 4 -37 13 -77 22 -90
8 -13 15 -31 15 -41 0 -10 7 -31 16 -48 8 -16 22 -55 29 -85 15 -56 49 -159
65 -195 5 -11 18 -51 29 -90 23 -82 62 -191 79 -222 7 -12 12 -32 12 -44 0
-12 9 -36 19 -53 11 -17 22 -48 26 -68 4 -21 13 -42 21 -49 8 -6 14 -19 14
-29 0 -18 38 -114 69 -175 12 -21 21 -46 21 -55 0 -8 9 -26 20 -40 11 -14 20
-31 20 -38 0 -7 11 -34 25 -60 14 -26 25 -52 25 -58 0 -6 6 -17 14 -23 8 -7
31 -46 51 -88 20 -42 43 -82 51 -90 8 -8 14 -20 14 -26 0 -7 17 -37 39 -68 21
-31 42 -65 45 -76 4 -11 15 -28 26 -38 11 -10 20 -22 20 -26 0 -11 141 -231
164 -255 6 -7 29 -34 51 -60 38 -46 63 -75 167 -196 69 -80 260 -262 338 -323
110 -86 150 -115 158 -115 5 0 19 -11 32 -25 13 -14 29 -25 36 -25 6 0 14 -7
18 -15 3 -8 12 -15 19 -15 8 0 39 -18 71 -40 31 -22 72 -46 90 -54 17 -7 38
-19 46 -27 12 -11 88 -51 233 -121 9 -4 25 -12 35 -17 106 -56 400 -159 542
-191 73 -16 169 -31 255 -39 44 -5 92 -11 108 -16 25 -7 27 -5 27 20 0 19 -14
41 -46 74 -25 25 -59 61 -76 81 -16 19 -57 64 -92 100 -153 161 -279 307 -376
436 -19 25 -39 51 -45 58 -38 44 -75 96 -75 105 0 6 -4 11 -8 11 -10 0 -80
101 -132 190 -11 19 -31 52 -43 72 -12 20 -42 72 -66 115 -25 43 -48 80 -53
81 -4 2 -8 11 -8 21 0 9 -9 27 -20 39 -11 12 -20 32 -20 45 0 13 -9 36 -20 50
-11 14 -20 28 -20 31 0 4 -20 48 -44 99 -24 50 -47 107 -51 126 -4 19 -16 48
-26 65 -10 17 -19 39 -19 49 0 10 -8 32 -17 50 -23 44 -43 98 -43 122 0 11 -7
29 -15 39 -8 11 -15 28 -15 39 0 18 -8 47 -61 214 -10 34 -19 74 -19 89 0 31
-20 105 -32 119 -4 5 -8 20 -8 33 0 13 -11 57 -25 98 -14 41 -25 86 -25 100 0
13 -9 42 -20 64 -11 22 -20 45 -20 51 0 7 -12 37 -26 68 -75 160 -96 201 -105
201 -5 0 -9 7 -9 15 0 8 -14 41 -32 72 -17 32 -40 75 -50 95 -10 20 -22 40
-28 43 -5 3 -10 14 -10 24 0 10 -11 30 -25 45 -14 15 -25 32 -25 38 0 6 -15
31 -33 57 -18 25 -45 67 -60 94 -16 26 -50 77 -77 113 -28 36 -50 68 -50 72 0
4 -9 14 -20 22 -11 8 -20 21 -20 30 0 8 -26 42 -56 75 -30 33 -73 85 -96 115
-47 64 -405 420 -422 420 -7 0 -22 10 -33 23 -29 31 -110 99 -143 119 -16 9
-36 23 -47 32 -49 40 -114 86 -122 86 -4 0 -19 8 -32 18 -21 17 -99 59 -139
77 -8 3 -33 17 -55 30 -55 34 -301 154 -350 171 -22 7 -52 14 -67 14 -16 0
-28 4 -28 8 0 8 -51 24 -140 42 -30 6 -72 18 -93 26 -20 8 -68 14 -105 14 -37
0 -72 4 -78 9 -14 14 -245 24 -277 12 -17 -7 -28 -7 -32 -1 -8 13 -119 10
-230 -5z m1335 -1555 c0 -5 -4 -10 -10 -10 -5 0 -10 5 -10 10 0 6 5 10 10 10
6 0 10 -4 10 -10z m-305 -1109 c3 -5 1 -12 -5 -16 -5 -3 -10 1 -10 9 0 18 6
21 15 7z"/>
<path d="M15410 9260 c-41 -5 -95 -13 -120 -19 -25 -6 -76 -10 -113 -11 -47 0
-80 -6 -107 -20 -22 -11 -56 -20 -75 -20 -34 0 -190 -46 -262 -76 -17 -8 -39
-14 -50 -14 -10 0 -29 -9 -43 -20 -14 -11 -34 -20 -45 -20 -11 0 -31 -9 -45
-20 -14 -11 -32 -20 -41 -20 -9 0 -33 -11 -53 -25 -20 -14 -43 -25 -50 -25 -7
0 -24 -8 -37 -19 -13 -10 -34 -21 -45 -25 -12 -4 -29 -15 -39 -26 -10 -11 -22
-20 -27 -20 -10 0 -91 -61 -96 -72 -2 -5 -9 -8 -14 -8 -6 0 -36 -19 -67 -42
-31 -24 -63 -47 -72 -53 -9 -5 -45 -29 -80 -53 -35 -24 -91 -57 -124 -73 -99
-51 -119 -62 -133 -76 -7 -7 -22 -13 -32 -13 -9 0 -53 -17 -96 -39 -44 -21
-98 -46 -121 -56 -24 -10 -43 -22 -43 -27 0 -4 -16 -8 -35 -8 -19 0 -49 -8
-67 -18 -18 -10 -50 -21 -71 -25 -21 -3 -52 -13 -69 -21 -17 -9 -45 -16 -62
-16 -17 0 -58 -12 -91 -25 -33 -14 -71 -25 -85 -25 -24 0 -107 -17 -195 -39
-22 -6 -57 -11 -77 -11 -20 0 -63 -7 -95 -15 -67 -18 -340 -20 -443 -5 -36 6
-105 13 -155 16 -169 10 -408 42 -530 70 -34 8 -95 20 -135 28 -41 8 -108 22
-148 31 -70 15 -75 15 -105 -2 -23 -14 -33 -27 -35 -50 -3 -26 7 -40 70 -104
40 -41 105 -102 143 -136 39 -33 93 -83 120 -110 95 -91 146 -133 160 -133 8
0 15 -4 15 -9 0 -4 32 -32 70 -62 39 -30 95 -73 125 -96 29 -24 58 -43 63 -43
4 0 19 -11 32 -25 13 -14 28 -25 34 -26 6 0 31 -16 56 -35 25 -19 60 -41 78
-49 17 -9 32 -20 32 -25 0 -5 11 -12 24 -16 14 -3 32 -14 42 -25 9 -10 23 -19
30 -19 7 0 19 -6 26 -13 40 -38 278 -167 309 -167 10 0 21 -4 24 -10 6 -9 74
-31 108 -35 10 -1 22 -6 25 -12 4 -6 36 -17 72 -24 36 -7 68 -17 71 -21 3 -4
32 -13 65 -19 32 -6 85 -19 116 -30 32 -10 77 -19 100 -19 24 0 57 -7 73 -16
17 -9 82 -22 146 -29 65 -7 121 -15 126 -18 49 -30 739 -40 868 -12 39 9 102
19 140 24 39 6 88 14 110 20 103 26 135 35 206 57 42 13 86 24 97 24 11 0 28
7 37 16 8 9 35 19 58 22 23 3 55 14 72 24 16 10 37 18 47 18 9 0 33 9 55 20
21 10 54 26 73 35 44 19 214 114 285 158 11 6 33 22 48 35 16 12 35 22 42 22
8 0 19 9 25 20 6 11 15 20 21 20 14 0 56 31 179 129 118 94 136 111 304 272
192 185 221 212 266 252 24 20 46 37 50 37 4 0 13 7 20 16 8 8 28 21 47 29 18
8 36 21 39 30 3 8 12 15 18 15 7 0 21 8 32 18 11 9 36 25 55 36 19 10 63 34
99 54 36 19 76 43 89 53 13 11 31 19 40 19 9 0 32 10 51 21 19 12 43 22 55 24
34 3 65 16 65 26 0 5 14 9 32 9 17 0 45 4 62 9 101 31 132 36 269 40 32 1 37
4 37 24 0 16 -16 39 -45 65 -25 22 -45 46 -45 51 0 6 -6 11 -13 11 -6 0 -25
14 -41 31 -46 48 -163 139 -180 139 -8 0 -20 9 -26 20 -6 11 -17 20 -25 20 -7
0 -27 11 -43 25 -17 14 -36 25 -43 25 -8 0 -25 9 -39 20 -14 11 -30 20 -36 20
-6 0 -17 7 -24 15 -7 8 -31 20 -54 25 -22 6 -75 29 -118 50 -42 22 -85 40 -95
40 -11 0 -42 11 -69 25 -27 14 -59 25 -71 25 -12 0 -42 9 -68 20 -26 11 -61
20 -80 20 -18 0 -48 6 -66 14 -19 8 -72 17 -119 21 -47 4 -112 13 -144 21 -71
17 -367 26 -476 14z"/>
<path d="M4740 9249 c-30 -5 -103 -12 -161 -17 -62 -5 -120 -16 -139 -26 -18
-9 -53 -16 -77 -16 -24 0 -57 -7 -72 -15 -16 -8 -51 -19 -77 -25 -27 -6 -64
-18 -82 -26 -18 -9 -50 -18 -70 -21 -20 -4 -50 -15 -67 -25 -16 -10 -40 -18
-51 -18 -12 0 -27 -7 -34 -14 -6 -8 -28 -20 -48 -27 -20 -6 -48 -20 -62 -29
-14 -10 -41 -27 -60 -38 -19 -11 -64 -38 -100 -60 -36 -23 -83 -50 -106 -61
-22 -12 -49 -29 -60 -39 -10 -9 -37 -31 -60 -47 -89 -65 -154 -129 -154 -152
0 -21 4 -22 78 -22 82 0 196 -29 299 -77 28 -13 58 -24 67 -24 8 0 16 -3 18
-7 4 -10 107 -73 118 -73 5 0 15 -7 23 -15 8 -8 36 -26 63 -41 56 -31 183
-124 203 -148 7 -9 18 -16 24 -16 6 0 17 -7 26 -15 9 -8 36 -31 61 -51 91 -72
136 -111 225 -195 110 -105 149 -139 164 -139 6 0 16 -11 22 -23 6 -13 23 -31
37 -40 15 -9 59 -46 97 -83 39 -36 88 -78 110 -92 22 -14 63 -45 92 -69 28
-24 56 -43 62 -43 6 0 11 -4 11 -9 0 -5 9 -13 20 -16 11 -3 26 -12 32 -18 24
-23 102 -77 111 -77 4 0 23 -11 40 -24 18 -14 45 -28 60 -32 16 -3 31 -13 34
-20 3 -8 9 -14 15 -14 5 0 70 -29 145 -65 74 -36 145 -65 156 -65 11 0 28 -6
36 -13 31 -26 342 -115 446 -128 33 -4 101 -14 150 -22 175 -29 312 -41 450
-39 152 2 461 20 485 29 8 3 35 7 59 10 24 2 52 8 62 13 10 6 33 10 51 10 29
0 104 18 203 48 17 5 35 7 42 5 6 -2 30 5 52 15 22 11 63 25 91 32 27 7 50 16
50 20 0 5 21 12 48 15 26 4 61 13 79 21 17 8 34 14 38 14 8 0 130 56 155 71 8
5 26 14 40 20 58 24 209 105 263 141 32 21 62 38 66 38 4 0 16 8 27 18 10 9
30 23 44 30 14 6 45 27 70 46 25 19 51 35 58 35 6 1 12 4 12 9 0 4 34 32 77
62 42 30 89 68 106 83 16 15 55 48 86 73 31 24 67 55 81 67 14 12 57 49 95 82
59 52 195 175 246 224 9 9 26 23 39 31 30 20 80 94 80 118 0 10 -9 27 -20 37
-23 20 -25 20 -225 -21 -38 -8 -77 -15 -85 -15 -8 -1 -35 -7 -60 -14 -25 -8
-92 -19 -150 -25 -57 -6 -112 -16 -120 -20 -20 -10 -88 -19 -185 -24 -38 -2
-101 -7 -140 -11 -92 -10 -396 -12 -460 -3 -27 4 -113 12 -190 18 -77 7 -143
14 -147 16 -3 2 -46 13 -95 23 -48 11 -106 25 -128 31 -22 7 -65 17 -95 23
-30 7 -65 18 -76 24 -12 7 -41 15 -65 19 -24 4 -48 10 -54 14 -5 4 -39 17 -75
29 -94 32 -96 33 -200 84 -52 26 -102 47 -111 47 -9 0 -40 16 -69 36 -29 20
-64 41 -79 48 -42 18 -174 98 -195 118 -11 10 -25 18 -31 18 -7 0 -20 9 -30
20 -10 11 -22 20 -27 20 -6 0 -37 20 -69 45 -33 25 -62 45 -66 45 -4 0 -16 9
-27 19 -28 26 -117 77 -256 146 -152 76 -156 78 -295 121 -66 21 -125 41 -130
45 -6 4 -39 11 -75 14 -36 4 -85 13 -110 21 -64 19 -395 53 -520 52 -58 0
-130 -4 -160 -9z"/>
<path d="M10631 8180 c-18 -4 -37 -13 -40 -19 -4 -6 -34 -15 -67 -20 -32 -6
-99 -17 -149 -25 -98 -17 -244 -14 -310 5 -22 6 -64 14 -94 16 -30 3 -68 14
-85 24 -19 12 -50 19 -78 19 -41 0 -52 -4 -75 -32 -16 -17 -53 -59 -83 -93
-30 -34 -68 -88 -85 -120 -16 -32 -38 -67 -47 -77 -10 -10 -18 -27 -18 -38 0
-11 -4 -20 -9 -20 -5 0 -16 -19 -26 -42 -9 -24 -23 -50 -30 -58 -7 -8 -16 -26
-20 -40 -3 -14 -15 -44 -26 -67 -10 -24 -19 -47 -19 -53 0 -6 -9 -36 -19 -68
-11 -31 -24 -88 -30 -127 -6 -38 -15 -90 -20 -115 -27 -124 -4 -326 50 -447
10 -24 19 -49 19 -57 0 -7 7 -19 16 -26 8 -8 21 -27 28 -44 14 -35 119 -145
181 -192 56 -43 134 -84 158 -84 11 0 42 -13 69 -30 26 -16 53 -30 58 -30 6 0
10 -6 10 -13 0 -8 10 -22 21 -33 50 -45 59 -113 59 -457 1 -485 -16 -1876 -23
-1883 -2 -2 -11 11 -19 28 -8 18 -25 53 -37 78 -11 25 -21 49 -21 55 0 15 -70
154 -81 161 -5 3 -9 14 -9 26 0 11 -9 33 -20 48 -11 16 -27 44 -36 62 -8 18
-35 67 -60 108 -24 41 -51 91 -60 110 -9 19 -20 37 -24 40 -4 3 -17 25 -28 50
-11 25 -32 60 -46 79 -14 19 -26 40 -26 46 0 6 -11 22 -25 35 -14 13 -25 27
-25 32 0 12 -50 89 -72 110 -24 24 -78 105 -78 116 0 5 -16 24 -35 43 -19 19
-35 38 -35 42 0 5 -29 41 -65 80 -36 39 -65 75 -65 80 0 9 -296 307 -360 362
-61 53 -203 160 -263 198 -116 74 -206 127 -216 127 -6 0 -11 5 -11 10 0 6
-12 16 -27 22 -16 6 -69 31 -118 55 -50 23 -96 43 -102 43 -7 0 -52 17 -100
38 -48 21 -119 46 -158 56 -38 10 -79 21 -90 26 -44 18 -174 45 -360 76 -148
25 -686 31 -810 10 -241 -41 -294 -54 -370 -85 -11 -5 -40 -15 -65 -22 -25 -7
-66 -23 -92 -36 -26 -13 -54 -23 -62 -23 -8 0 -47 -17 -88 -39 -151 -80 -213
-114 -218 -120 -3 -3 -32 -19 -65 -36 -33 -16 -67 -36 -75 -45 -8 -9 -35 -28
-60 -43 -51 -32 -83 -55 -158 -115 -30 -23 -58 -42 -63 -42 -16 0 -10 -48 7
-54 9 -3 39 -6 67 -6 29 0 79 -7 112 -16 33 -8 78 -19 100 -23 105 -22 415
-210 516 -313 20 -21 42 -38 48 -38 6 0 11 -4 11 -8 0 -5 75 -82 166 -173 91
-90 195 -195 232 -233 37 -38 100 -101 141 -140 41 -39 91 -88 112 -108 22
-21 42 -38 45 -38 4 0 30 -20 58 -43 112 -95 225 -174 303 -211 17 -9 34 -20
38 -25 10 -17 118 -71 142 -71 13 0 23 -4 23 -10 0 -13 87 -52 205 -90 55 -18
122 -42 149 -52 27 -10 59 -18 72 -18 12 0 35 -5 49 -10 29 -11 163 -40 173
-38 11 3 152 -12 212 -22 30 -5 150 -14 265 -20 116 -6 235 -17 265 -25 30 -8
89 -16 130 -19 41 -3 101 -14 132 -26 32 -11 66 -20 77 -20 11 0 22 -4 25 -9
3 -4 27 -14 53 -21 100 -27 305 -149 402 -239 25 -22 47 -42 51 -43 8 -4 93
-118 146 -195 36 -52 74 -115 130 -214 19 -34 47 -59 65 -59 10 0 21 -4 24
-10 3 -5 16 -10 28 -9 12 0 54 -3 92 -7 136 -15 401 -8 463 12 23 8 78 14 122
14 l80 0 20 39 c11 22 24 42 30 46 5 3 10 13 10 21 0 8 26 53 58 101 31 47 62
94 67 103 14 22 122 146 166 189 54 53 140 112 237 162 23 12 45 25 48 30 3 5
13 9 23 9 10 0 29 9 43 19 13 11 42 23 64 26 21 4 50 14 64 21 36 19 271 68
315 65 11 -1 36 3 55 8 72 20 180 31 345 36 94 3 204 10 245 15 41 5 113 13
160 18 47 6 118 19 157 31 40 12 81 21 90 21 25 0 149 38 214 66 31 13 65 24
76 24 11 0 32 9 46 20 14 11 34 20 45 20 10 0 31 9 45 20 14 11 31 20 39 20 7
0 44 21 80 48 37 26 86 59 110 74 24 15 54 36 68 47 14 11 50 38 80 60 67 48
92 68 129 101 15 14 65 57 112 97 46 39 145 136 219 214 74 78 173 181 220
228 47 48 105 108 130 134 25 26 49 47 54 47 5 0 16 8 25 18 57 63 295 230
353 247 13 4 32 13 43 20 11 6 38 18 60 25 22 7 46 19 53 27 7 7 33 13 56 13
24 0 56 5 73 10 16 6 59 14 94 18 55 6 64 10 67 29 5 32 -86 118 -210 199 -57
37 -116 78 -131 91 -16 13 -35 23 -43 23 -8 0 -24 8 -35 19 -11 10 -45 31 -77
46 -31 16 -75 41 -97 56 -22 15 -58 33 -80 41 -22 7 -42 15 -45 19 -4 4 -73
32 -201 80 -14 6 -30 9 -35 7 -5 -1 -29 5 -54 13 -40 15 -127 34 -270 60 -25
4 -96 8 -159 8 -63 1 -129 6 -147 13 -18 6 -39 8 -50 3 -11 -5 -22 -8 -25 -7
-25 5 -431 -21 -459 -29 -19 -5 -71 -16 -115 -24 -122 -22 -256 -53 -295 -69
-19 -8 -61 -22 -93 -32 -32 -9 -60 -21 -63 -25 -3 -5 -14 -9 -25 -9 -10 0 -27
-4 -37 -9 -20 -11 -66 -30 -142 -61 -100 -40 -140 -62 -152 -84 -5 -9 -18 -16
-30 -16 -31 0 -238 -126 -311 -189 -17 -15 -40 -32 -49 -37 -9 -5 -45 -36 -80
-69 -34 -33 -85 -78 -113 -99 -76 -60 -189 -172 -263 -261 -37 -44 -95 -111
-129 -150 -35 -38 -63 -73 -63 -78 0 -5 -19 -32 -42 -60 -24 -28 -47 -59 -53
-68 -5 -10 -30 -46 -55 -81 -25 -35 -61 -90 -79 -123 -19 -33 -54 -90 -77
-127 -24 -37 -44 -72 -44 -79 0 -6 -9 -22 -20 -36 -11 -14 -20 -32 -20 -39 0
-7 -6 -19 -13 -26 -8 -7 -33 -51 -55 -97 -23 -46 -52 -98 -65 -115 -25 -33
-57 -98 -57 -114 0 -5 -7 -15 -15 -22 -8 -7 -15 -18 -15 -26 0 -7 -18 -50 -39
-96 -22 -46 -42 -93 -46 -105 -3 -13 -11 -23 -16 -23 -10 0 -11 126 -12 1440
l-1 805 25 50 c41 83 113 142 186 151 34 5 68 20 117 53 90 61 223 202 260
277 15 33 32 67 38 77 24 47 56 235 52 307 -6 136 -25 284 -44 345 -10 33 -21
76 -25 95 -4 19 -12 44 -19 55 -7 11 -18 41 -25 67 -7 26 -19 49 -27 52 -8 3
-14 13 -14 23 0 10 -9 29 -20 43 -11 14 -20 33 -20 42 0 9 -5 20 -10 23 -9 6
-40 48 -75 104 -49 78 -78 114 -141 178 -68 69 -74 73 -116 72 -23 -1 -58 -5
-77 -9z m-3812 -2379 c20 -5 74 -15 121 -21 77 -10 145 -27 208 -51 13 -5 33
-9 45 -9 13 0 28 -5 33 -10 6 -6 44 -17 85 -26 40 -8 81 -22 90 -30 8 -8 24
-14 34 -14 27 0 120 -42 330 -147 201 -101 300 -154 356 -190 505 -329 638
-442 1149 -973 104 -108 147 -166 74 -100 -60 55 -62 56 -100 83 -41 29 -202
163 -232 194 -12 12 -48 42 -80 65 -31 23 -59 45 -62 49 -3 4 -30 24 -60 45
-30 21 -59 43 -65 50 -15 18 -143 114 -152 114 -5 0 -30 18 -57 40 -26 22 -51
40 -55 40 -3 0 -18 10 -32 23 -32 28 -56 44 -95 62 -17 8 -34 21 -37 30 -4 8
-13 15 -21 15 -8 0 -27 10 -43 23 -15 13 -54 39 -87 58 -32 19 -79 46 -105 61
-25 15 -80 44 -121 64 -41 20 -77 40 -80 44 -10 12 -103 60 -118 60 -9 0 -25
8 -36 18 -12 10 -50 31 -86 47 -36 16 -77 37 -92 47 -14 10 -31 18 -38 18 -7
0 -33 11 -59 24 -25 13 -71 36 -101 52 -30 15 -62 33 -71 40 -8 8 -29 15 -46
17 -17 2 -43 11 -57 20 -14 9 -34 17 -45 17 -11 0 -23 5 -26 10 -8 13 -72 40
-94 40 -10 0 -36 9 -59 20 -22 11 -48 20 -57 20 -9 0 -25 5 -36 11 -11 5 -54
17 -97 25 -42 8 -81 19 -86 24 -13 13 114 13 163 1z m7046 -45 c-22 -8 -64
-16 -92 -19 -29 -4 -68 -13 -85 -21 -18 -8 -54 -17 -81 -20 -26 -3 -61 -12
-77 -21 -16 -8 -42 -15 -58 -15 -16 0 -35 -7 -42 -15 -7 -8 -19 -15 -27 -15
-18 0 -330 -122 -408 -160 -33 -16 -76 -36 -95 -44 -19 -9 -42 -20 -50 -25 -8
-5 -26 -14 -40 -20 -14 -6 -32 -15 -40 -20 -8 -6 -49 -26 -90 -45 -41 -20
-106 -56 -145 -81 -38 -26 -87 -56 -109 -68 -64 -36 -75 -43 -93 -58 -10 -9
-29 -20 -43 -27 -14 -7 -45 -27 -70 -46 -25 -19 -51 -35 -57 -35 -7 -1 -13 -5
-13 -9 0 -5 -42 -37 -92 -72 -51 -34 -100 -69 -108 -76 -8 -8 -55 -44 -105
-80 -49 -37 -101 -78 -116 -90 -14 -13 -28 -24 -33 -24 -4 0 -26 -18 -49 -39
-23 -22 -61 -53 -83 -68 -78 -54 -147 -109 -196 -155 -28 -27 -54 -48 -58 -48
-5 0 -12 -9 -15 -20 -3 -11 -11 -20 -18 -20 -6 0 -21 -10 -34 -22 -43 -40 -23
-2 22 42 25 24 45 48 45 52 0 20 291 312 435 436 28 24 64 55 81 70 16 15 50
43 73 62 24 19 65 53 91 75 25 22 60 50 76 63 40 32 278 194 312 212 15 8 31
21 35 28 4 6 16 12 26 12 10 0 29 8 42 18 13 9 58 34 99 55 41 21 82 42 90 46
8 4 35 17 60 28 25 11 70 32 100 47 30 14 61 26 69 26 7 0 25 8 39 19 15 10
47 25 72 32 25 7 50 16 55 20 6 4 28 10 50 14 22 4 52 15 67 26 15 10 42 19
60 19 18 0 68 9 110 20 42 10 112 22 155 25 43 4 92 11 108 17 36 13 113 22
215 25 l75 3 -40 -14z"/>
</g>
</svg>
